<?xml version="1.0" encoding="utf-8"?>
<!-- Generator: Adobe Illustrator 22.0.1, SVG Export Plug-In . SVG Version: 6.00 Build 0)  -->
<svg version="1.1" id="레이어_1" xmlns="http://www.w3.org/2000/svg" xmlns:xlink="http://www.w3.org/1999/xlink" x="0px"
	 y="0px" viewBox="0 0 369 216" style="enable-background:new 0 0 369 216;" xml:space="preserve">
<style type="text/css">
	.st0{fill:#5484DC;}
</style>
<g>
	<path class="st0" d="M247.4,68.3c-11.9,0-23.1,0-34.6,0c-21.9-33.9-52.7-47.3-90.9-33.3c-33.3,12.2-48.4,39.7-47.5,74.7
		c1,35.6,17.6,62.1,52.6,72.6c36.1,10.9,64.4-2.7,85.5-33.8c11,0,22.3,0,33.7,0c-5,35.2-54.5,68.5-99.2,67.4
		c-55.4-1.4-101.2-42.5-106.4-95.6C35.2,65.1,71,13.5,122.1,2.9C177.4-8.6,230.6,18.8,247.4,68.3z"/>
	<path class="st0" d="M351.7,4.3c2.6,9.9,5.2,19.7,7.8,29.6c-24.1,0-48.1,0-72.8,0c0,19.2,0,37.9,0,57.7c26.5,0,53.3,0,80.7,0
		c0,10.3,0,19.5,0,29.8c-26.7,0-53.5,0-80.8,0c0,20.5,0,40,0,60.5c27.3,0,54.4,0,82,0c0,10.2,0,19.4,0,29.4c-38.5,0-76.5,0-115.3,0
		c0-68.8,0-137.4,0-206.9C286.4,4.3,319,4.3,351.7,4.3z"/>
	<path class="st0" d="M0.3,211c0-69,0-137.5,0-206.5c11.1,0,21.7,0,32.9,0c0,68.6,0,137.1,0,206.5C22.7,211,11.9,211,0.3,211z"/>
</g>
</svg>
