<?xml version="1.0" encoding="utf-8"?>
<!-- Generator: Adobe Illustrator 22.0.1, SVG Export Plug-In . SVG Version: 6.00 Build 0)  -->
<svg version="1.1" id="레이어_1" xmlns="http://www.w3.org/2000/svg" xmlns:xlink="http://www.w3.org/1999/xlink" x="0px"
	 y="0px" viewBox="0 0 997 216" style="enable-background:new 0 0 997 216;" xml:space="preserve">
<style type="text/css">
	.st0{fill:#76BCF2;}
	.st1{fill:#5484DC;}
</style>
<g>
	<path class="st0" d="M351.7,4.3c11,0,22,0,34,0c13.3,52.4,26.7,105.2,40.7,160.3c13.7-54.6,26.8-107,40.1-160c8.5,0,16.7,0,25.8,0
		C505.6,56.9,519,109.5,533,164.9C546.8,109.8,559.8,57.5,573,4.6c11.2,0,22.2,0,34.3,0c-19.1,69.2-38,137.8-57,206.8
		c-10.4,0-20.3,0-31.3,0c-12.9-50.5-25.9-101.3-39.7-155.4c-13.7,53.6-26.7,104.4-39.7,155.4c-10.9,0-21,0-32.1,0
		c-16-59.1-31.9-118.3-47.9-177.5C356.9,24.1,354.3,14.2,351.7,4.3z"/>
	<path class="st0" d="M664.9,4.3c10.3,0,19.9,0,30.7,0c27.7,68.5,55.5,137.4,83.8,207.1c-13,0-24.6,0-36.5,0
		c-6.5-16.2-13-32.1-19.5-48.4c-28.9,0-57.9,0-88,0c-6.1,15.7-12.5,31.8-18.9,48.3c-11.9,0-23.5,0-36.6,0
		C608.4,141.8,636.7,73,664.9,4.3z M713.9,135.2C702.2,104.5,691,75,679,43.7c-11.8,31.6-22.9,61.2-34.3,91.5
		C668.4,135.2,690.5,135.2,713.9,135.2z"/>
	<path class="st0" d="M815.3,181.9c25.2,0,48.9,0,73.3,0c0,10,0,19.5,0,29.5c-35.1,0-70.1,0-105.8,0c0-68.6,0-137.3,0-206.7
		c10.4,0,21,0,32.5,0C815.3,63.3,815.3,122,815.3,181.9z"/>
	<path class="st0" d="M997.2,181.8c0,10.4,0,19.7,0,29.6c-35.4,0-70.3,0-105.7,0c0-68.8,0-137.4,0-206.7c10.6,0,21.4,0,33.2,0
		c0,59,0,117.8,0,177.1C949.2,181.8,972.7,181.8,997.2,181.8z"/>
</g>
<g>
	<path class="st1" d="M247.4,68.3c-11.9,0-23.1,0-34.6,0c-21.9-33.9-52.7-47.3-90.9-33.3c-33.3,12.2-48.4,39.7-47.5,74.7
		c1,35.6,17.6,62.1,52.6,72.6c36.1,10.9,64.4-2.7,85.5-33.8c11,0,22.3,0,33.7,0c-5,35.2-54.5,68.5-99.2,67.4
		c-55.4-1.4-101.2-42.5-106.4-95.6C35.2,65.1,71,13.5,122.1,2.9C177.4-8.6,230.6,18.8,247.4,68.3z"/>
	<path class="st1" d="M351.7,4.3c2.6,9.9,5.2,19.7,7.8,29.6c-24.1,0-48.1,0-72.8,0c0,19.2,0,37.9,0,57.7c26.5,0,53.3,0,80.7,0
		c0,10.3,0,19.5,0,29.8c-26.7,0-53.5,0-80.8,0c0,20.5,0,40,0,60.5c27.3,0,54.4,0,82,0c0,10.2,0,19.4,0,29.4c-38.5,0-76.5,0-115.3,0
		c0-68.8,0-137.4,0-206.9C286.4,4.3,319,4.3,351.7,4.3z"/>
	<path class="st1" d="M0.3,211c0-69,0-137.5,0-206.5c11.1,0,21.7,0,32.9,0c0,68.6,0,137.1,0,206.5C22.7,211,11.9,211,0.3,211z"/>
</g>
</svg>
