<?xml version="1.0" encoding="utf-8"?>
<!-- Generator: Adobe Illustrator 22.0.1, SVG Export Plug-In . SVG Version: 6.00 Build 0)  -->
<svg version="1.1" id="레이어_1" xmlns="http://www.w3.org/2000/svg" xmlns:xlink="http://www.w3.org/1999/xlink" x="0px"
	 y="0px" viewBox="0 0 646 208" style="enable-background:new 0 0 646 208;" xml:space="preserve">
<style type="text/css">
	.st0{fill:#76BCF2;}
</style>
<g>
	<path class="st0" d="M-0.3,0.3c11,0,22,0,34,0C47,52.8,60.4,105.5,74.4,160.6c13.7-54.6,26.8-107,40.1-160c8.5,0,16.7,0,25.8,0
		C153.6,52.9,167,105.5,181,160.9C194.8,105.8,207.8,53.5,221,0.6c11.2,0,22.2,0,34.3,0c-19.1,69.2-38,137.8-57,206.8
		c-10.4,0-20.3,0-31.3,0c-12.9-50.5-25.9-101.3-39.7-155.4c-13.7,53.6-26.7,104.4-39.7,155.4c-10.9,0-21,0-32.1,0
		C39.5,148.4,23.5,89.1,7.5,29.9C4.9,20.1,2.3,10.2-0.3,0.3z"/>
	<path class="st0" d="M312.9,0.3c10.3,0,19.9,0,30.7,0c27.7,68.5,55.5,137.4,83.8,207.1c-13,0-24.6,0-36.5,0
		c-6.5-16.2-13-32.1-19.5-48.4c-28.9,0-57.9,0-88,0c-6.1,15.7-12.5,31.8-18.9,48.3c-11.9,0-23.5,0-36.6,0
		C256.4,137.8,284.7,69,312.9,0.3z M361.9,131.2C350.2,100.5,339,71,327,39.7c-11.8,31.6-22.9,61.2-34.3,91.5
		C316.4,131.2,338.5,131.2,361.9,131.2z"/>
	<path class="st0" d="M463.3,177.9c25.2,0,48.9,0,73.3,0c0,10,0,19.5,0,29.5c-35.1,0-70.1,0-105.8,0c0-68.6,0-137.3,0-206.7
		c10.4,0,21,0,32.5,0C463.3,59.3,463.3,118,463.3,177.9z"/>
	<path class="st0" d="M645.2,177.8c0,10.4,0,19.7,0,29.6c-35.4,0-70.3,0-105.7,0c0-68.8,0-137.4,0-206.7c10.6,0,21.4,0,33.2,0
		c0,59,0,117.8,0,177.1C597.2,177.8,620.7,177.8,645.2,177.8z"/>
</g>
</svg>
